<svg width="50" height="50" viewBox="0 0 50 50" fill="none" xmlns="http://www.w3.org/2000/svg">
<path d="M15.625 32.8125C15.625 32.3981 15.7896 32.0007 16.0826 31.7076C16.3757 31.4146 16.7731 31.25 17.1875 31.25H23.4375C23.8519 31.25 24.2493 31.4146 24.5424 31.7076C24.8354 32.0007 25 32.3981 25 32.8125C25 33.2269 24.8354 33.6243 24.5424 33.9174C24.2493 34.2104 23.8519 34.375 23.4375 34.375H17.1875C16.7731 34.375 16.3757 34.2104 16.0826 33.9174C15.7896 33.6243 15.625 33.2269 15.625 32.8125ZM15.625 26.5625C15.625 26.1481 15.7896 25.7507 16.0826 25.4576C16.3757 25.1646 16.7731 25 17.1875 25H32.8125C33.2269 25 33.6243 25.1646 33.9174 25.4576C34.2104 25.7507 34.375 26.1481 34.375 26.5625C34.375 26.9769 34.2104 27.3743 33.9174 27.6674C33.6243 27.9604 33.2269 28.125 32.8125 28.125H17.1875C16.7731 28.125 16.3757 27.9604 16.0826 27.6674C15.7896 27.3743 15.625 26.9769 15.625 26.5625ZM15.625 20.3125C15.625 19.8981 15.7896 19.5007 16.0826 19.2076C16.3757 18.9146 16.7731 18.75 17.1875 18.75H32.8125C33.2269 18.75 33.6243 18.9146 33.9174 19.2076C34.2104 19.5007 34.375 19.8981 34.375 20.3125C34.375 20.7269 34.2104 21.1243 33.9174 21.4174C33.6243 21.7104 33.2269 21.875 32.8125 21.875H17.1875C16.7731 21.875 16.3757 21.7104 16.0826 21.4174C15.7896 21.1243 15.625 20.7269 15.625 20.3125ZM15.625 14.0625C15.625 13.6481 15.7896 13.2507 16.0826 12.9576C16.3757 12.6646 16.7731 12.5 17.1875 12.5H32.8125C33.2269 12.5 33.6243 12.6646 33.9174 12.9576C34.2104 13.2507 34.375 13.6481 34.375 14.0625C34.375 14.4769 34.2104 14.8743 33.9174 15.1674C33.6243 15.4604 33.2269 15.625 32.8125 15.625H17.1875C16.7731 15.625 16.3757 15.4604 16.0826 15.1674C15.7896 14.8743 15.625 14.4769 15.625 14.0625Z" fill="#F8E578"/>
<path d="M9.375 0H40.625C42.2826 0 43.8723 0.65848 45.0444 1.83058C46.2165 3.00269 46.875 4.5924 46.875 6.25V43.75C46.875 45.4076 46.2165 46.9973 45.0444 48.1694C43.8723 49.3415 42.2826 50 40.625 50H9.375C7.7174 50 6.12769 49.3415 4.95558 48.1694C3.78348 46.9973 3.125 45.4076 3.125 43.75V40.625H6.25V43.75C6.25 44.5788 6.57924 45.3737 7.16529 45.9597C7.75134 46.5458 8.5462 46.875 9.375 46.875H40.625C41.4538 46.875 42.2487 46.5458 42.8347 45.9597C43.4208 45.3737 43.75 44.5788 43.75 43.75V6.25C43.75 5.4212 43.4208 4.62634 42.8347 4.04029C42.2487 3.45424 41.4538 3.125 40.625 3.125H9.375C8.5462 3.125 7.75134 3.45424 7.16529 4.04029C6.57924 4.62634 6.25 5.4212 6.25 6.25V9.375H3.125V6.25C3.125 4.5924 3.78348 3.00269 4.95558 1.83058C6.12769 0.65848 7.7174 0 9.375 0V0Z" fill="#F8E578"/>
<path d="M3.125 15.625V14.0625C3.125 13.6481 3.28962 13.2507 3.58265 12.9576C3.87567 12.6646 4.2731 12.5 4.6875 12.5C5.1019 12.5 5.49933 12.6646 5.79235 12.9576C6.08538 13.2507 6.25 13.6481 6.25 14.0625V15.625H7.8125C8.2269 15.625 8.62433 15.7896 8.91735 16.0826C9.21038 16.3757 9.375 16.7731 9.375 17.1875C9.375 17.6019 9.21038 17.9993 8.91735 18.2924C8.62433 18.5854 8.2269 18.75 7.8125 18.75H1.5625C1.1481 18.75 0.750671 18.5854 0.457646 18.2924C0.16462 17.9993 0 17.6019 0 17.1875C0 16.7731 0.16462 16.3757 0.457646 16.0826C0.750671 15.7896 1.1481 15.625 1.5625 15.625H3.125ZM3.125 25V23.4375C3.125 23.0231 3.28962 22.6257 3.58265 22.3326C3.87567 22.0396 4.2731 21.875 4.6875 21.875C5.1019 21.875 5.49933 22.0396 5.79235 22.3326C6.08538 22.6257 6.25 23.0231 6.25 23.4375V25H7.8125C8.2269 25 8.62433 25.1646 8.91735 25.4576C9.21038 25.7507 9.375 26.1481 9.375 26.5625C9.375 26.9769 9.21038 27.3743 8.91735 27.6674C8.62433 27.9604 8.2269 28.125 7.8125 28.125H1.5625C1.1481 28.125 0.750671 27.9604 0.457646 27.6674C0.16462 27.3743 0 26.9769 0 26.5625C0 26.1481 0.16462 25.7507 0.457646 25.4576C0.750671 25.1646 1.1481 25 1.5625 25H3.125ZM3.125 34.375V32.8125C3.125 32.3981 3.28962 32.0007 3.58265 31.7076C3.87567 31.4146 4.2731 31.25 4.6875 31.25C5.1019 31.25 5.49933 31.4146 5.79235 31.7076C6.08538 32.0007 6.25 32.3981 6.25 32.8125V34.375H7.8125C8.2269 34.375 8.62433 34.5396 8.91735 34.8326C9.21038 35.1257 9.375 35.5231 9.375 35.9375C9.375 36.3519 9.21038 36.7493 8.91735 37.0424C8.62433 37.3354 8.2269 37.5 7.8125 37.5H1.5625C1.1481 37.5 0.750671 37.3354 0.457646 37.0424C0.16462 36.7493 0 36.3519 0 35.9375C0 35.5231 0.16462 35.1257 0.457646 34.8326C0.750671 34.5396 1.1481 34.375 1.5625 34.375H3.125Z" fill="#F8E578"/>
</svg>
